<svg width="33" height="48" viewBox="0 0 33 48" fill="none" xmlns="http://www.w3.org/2000/svg">
<path d="M23.8912 47.0001H8.94643C5.03513 47.0001 2.63833 42.7116 4.68779 39.3802L12.0335 27.4398C13.9684 24.2947 18.5278 24.26 20.5104 27.3752L28.1094 39.3156C30.2278 42.6442 27.8368 47.0001 23.8912 47.0001Z" fill="#14FF00" stroke="#14FF00"/>
<path d="M20.376 22.6604L20.1667 22.8177L16.4439 25.2195L13.7736 22.8177L12.3491 21.5333C11.6044 20.8619 12.2013 19.6343 13.1893 19.8053L14.6667 20.061L14.7503 19.5068C15.1063 17.1469 18.5629 17.3191 18.6826 19.7027C20.5478 18.9239 21.9919 21.4462 20.376 22.6604Z" fill="#14FF00"/>
<path d="M16.121 42.1247V31.7847H17.023V42.1247H16.121ZM16.462 40.9147C15.8606 40.9147 15.285 40.8304 14.735 40.6617C14.185 40.4857 13.7486 40.262 13.426 39.9907L13.921 38.8797C14.229 39.1217 14.6103 39.3234 15.065 39.4847C15.5196 39.646 15.9853 39.7267 16.462 39.7267C16.8653 39.7267 17.1916 39.6827 17.441 39.5947C17.6903 39.5067 17.8736 39.3894 17.991 39.2427C18.1083 39.0887 18.167 38.9164 18.167 38.7257C18.167 38.491 18.0826 38.304 17.914 38.1647C17.7453 38.018 17.5253 37.9044 17.254 37.8237C16.99 37.7357 16.693 37.655 16.363 37.5817C16.0403 37.5084 15.714 37.424 15.384 37.3287C15.0613 37.226 14.7643 37.0977 14.493 36.9437C14.229 36.7824 14.0126 36.5697 13.844 36.3057C13.6753 36.0417 13.591 35.7044 13.591 35.2937C13.591 34.8757 13.701 34.4944 13.921 34.1497C14.1483 33.7977 14.4893 33.519 14.944 33.3137C15.406 33.101 15.989 32.9947 16.693 32.9947C17.155 32.9947 17.6133 33.0534 18.068 33.1707C18.5226 33.288 18.9186 33.4567 19.256 33.6767L18.805 34.7877C18.4603 34.5824 18.1046 34.432 17.738 34.3367C17.3713 34.234 17.0193 34.1827 16.682 34.1827C16.286 34.1827 15.9633 34.2304 15.714 34.3257C15.472 34.421 15.2923 34.5457 15.175 34.6997C15.065 34.8537 15.01 35.0297 15.01 35.2277C15.01 35.4624 15.0906 35.653 15.252 35.7997C15.4206 35.939 15.637 36.049 15.901 36.1297C16.1723 36.2104 16.473 36.291 16.803 36.3717C17.133 36.445 17.4593 36.5294 17.782 36.6247C18.112 36.72 18.409 36.8447 18.673 36.9987C18.9443 37.1527 19.1606 37.3617 19.322 37.6257C19.4906 37.8897 19.575 38.2234 19.575 38.6267C19.575 39.0374 19.4613 39.4187 19.234 39.7707C19.014 40.1154 18.673 40.394 18.211 40.6067C17.749 40.812 17.166 40.9147 16.462 40.9147Z" fill="#27232A"/>
</svg>
